<svg width="58.000000" height="70.000000" viewBox="0 0 58 70" fill="none" xmlns="http://www.w3.org/2000/svg" xmlns:xlink="http://www.w3.org/1999/xlink">
	<desc>
			Created with Pixso.
	</desc>
	<defs/>
	<g opacity="0.800000">
		<path id="icn_biaozhunshitu" d="M2 0L56 0C57.1045 0 58 0.895508 58 2L58 44C58 45.1045 57.1045 46 56 46L2 46C0.895508 46 0 45.1045 0 44L0 2C0 0.895508 0.895508 0 2 0ZM16 48L2 48C0.895508 48 0 48.8955 0 50L0 68C0 69.1045 0.895508 70 2 70L16 70C17.1045 70 18 69.1045 18 68L18 50C18 48.8955 17.1045 48 16 48ZM22 48L36 48C37.1045 48 38 48.8955 38 50L38 68C38 69.1045 37.1045 70 36 70L22 70C20.8955 70 20 69.1045 20 68L20 50C20 48.8955 20.8955 48 22 48ZM56 48L42 48C40.8955 48 40 48.8955 40 50L40 68C40 69.1045 40.8955 70 42 70L56 70C57.1045 70 58 69.1045 58 68L58 50C58 48.8955 57.1045 48 56 48Z" clip-rule="evenodd" fill="#D0D0D0" fill-opacity="1.000000" fill-rule="evenodd"/>
	</g>
</svg>
