<?xml version="1.0" encoding="UTF-8"?>
<svg width="52px" height="52px" viewBox="0 0 52 52" version="1.1" xmlns="http://www.w3.org/2000/svg" xmlns:xlink="http://www.w3.org/1999/xlink">
    <title>icn_加入会议</title>
    <g id="页面-1" stroke="none" stroke-width="1" fill="none" fill-rule="evenodd">
        <g id="画板" transform="translate(-148.000000, -240.000000)" fill="#F94A3E">
            <g id="视频会议-无数据" transform="translate(80.000000, 123.000000)">
                <g id="加入会议" transform="translate(68.000000, 117.000000)">
                    <path d="M36.6166888,6.21504185e-16 C41.9658012,-3.61111829e-16 43.9055187,0.556953667 45.8610742,1.60279622 C47.8166298,2.64863878 49.3513612,4.18337022 50.3972038,6.13892578 C51.4430463,8.09448133 52,10.0341988 52,15.3833112 L52,36.6166888 C52,41.9658012 51.4430463,43.9055187 50.3972038,45.8610742 C49.3513612,47.8166298 47.8166298,49.3513612 45.8610742,50.3972038 C43.9055187,51.4430463 41.9658012,52 36.6166888,52 L15.3833112,52 C10.0341988,52 8.09448133,51.4430463 6.13892578,50.3972038 C4.18337022,49.3513612 2.64863878,47.8166298 1.60279622,45.8610742 C0.556953667,43.9055187 2.4074122e-16,41.9658012 -4.14336123e-16,36.6166888 L4.14336123e-16,15.3833112 C-2.4074122e-16,10.0341988 0.556953667,8.09448133 1.60279622,6.13892578 C2.64863878,4.18337022 4.18337022,2.64863878 6.13892578,1.60279622 C8.09448133,0.556953667 10.0341988,3.61111829e-16 15.3833112,-6.21504185e-16 L36.6166888,6.21504185e-16 Z M27,17 L25,17 C24.4477153,17 24,17.4477153 24,18 L24,18 L24,24 L18,24 C17.4871642,24 17.0644928,24.3860402 17.0067277,24.8833789 L17,25 L17,27 C17,27.5522847 17.4477153,28 18,28 L18,28 L24,28 L24,34 C24,34.5128358 24.3860402,34.9355072 24.8833789,34.9932723 L25,35 L27,35 C27.5522847,35 28,34.5522847 28,34 L28,34 L28,28 L34,28 C34.5128358,28 34.9355072,27.6139598 34.9932723,27.1166211 L35,27 L35,25 C35,24.4477153 34.5522847,24 34,24 L34,24 L28,24 L28,18 C28,17.4871642 27.6139598,17.0644928 27.1166211,17.0067277 L27,17 Z" id="icn_加入会议"></path>
                </g>
            </g>
        </g>
    </g>
</svg>