<?xml version="1.0" encoding="UTF-8"?>
<svg width="24px" height="24px" viewBox="0 0 24 24" version="1.1" xmlns="http://www.w3.org/2000/svg" xmlns:xlink="http://www.w3.org/1999/xlink">
    <title>icn_hand@2x</title>
    <g id="icn_hand" stroke="none" stroke-width="1" fill="none" fill-rule="evenodd">
        <path d="M19,7.07770932 L19,17.8370668 C19,19.4704583 17.7148735,21 16.0726958,21 L10.5558036,21 C10.3151026,21 10.0796946,20.9542201 9.85301746,20.8749704 C9.32101136,20.6889731 8.46832275,19.9217529 7.6901258,18.7681344 C6.55833566,17.0903404 4.51862022,14.0655122 4.18356323,13.476593 C3.75835226,12.7306637 3.91074407,12.1642824 4.34475708,11.8471099 C4.75146115,11.5498946 5.4461992,11.4696699 5.78179932,11.8471099 C5.89487118,11.9742787 7.81024742,14.1830906 7.81024742,14.1830906 L7.81024742,5.96741337 C7.8102474,5.57005575 8.02337547,5.20288216 8.36934834,5.00420335 C8.7153212,4.80552454 9.14157735,4.80552454 9.48755022,5.00420335 C9.83352308,5.20288216 10.0466512,5.57005575 10.0466511,5.96741337 L10.0466511,11.112793 C10.0761176,11.2623698 10.1892802,11.3371582 10.3861389,11.3371582 C10.5829976,11.3371582 10.7194701,11.2780741 10.7955564,11.159906 L10.7955564,4.1122191 C10.7955564,3.49795745 11.2961924,3 11.9137582,3 C12.5313241,3 13.0319601,3.49795745 13.0319601,4.1122191 L13.0319601,11.159906 C13.1009854,11.2780741 13.2278341,11.3371582 13.4125061,11.3371582 C13.5971781,11.3371582 13.7191052,11.2780741 13.7782873,11.159906 L13.7782873,4.85327113 C13.7782873,4.45591351 13.9914154,4.08873991 14.3373882,3.8900611 C14.6833611,3.69138228 15.1096173,3.69138228 15.4555901,3.8900611 C15.801563,4.08873991 16.0146911,4.45591351 16.0146911,4.85327113 L16.0146911,11.112793 C16.0855651,11.2623698 16.2144877,11.3371582 16.4014587,11.3371582 C16.5884298,11.3371582 16.708283,11.2780741 16.7610183,11.159906 L16.7610183,7.07770932 C16.7610183,6.46358489 17.2611478,5.96741337 17.8811536,5.96741337 C18.5011595,5.96741337 19,6.46358489 19,7.07770932 Z" id="路径" fill="#FFFFFF" fill-rule="nonzero"></path>
    </g>
</svg>