<svg width="58.000000" height="70.000000" viewBox="0 0 58 70" fill="none" xmlns="http://www.w3.org/2000/svg" xmlns:xlink="http://www.w3.org/1999/xlink">
	<desc>
			Created with Pixso.
	</desc>
	<defs/>
	<path id="icn_gonggeshitu" d="M2 0L16 0C17.1045 0 18 0.895508 18 2L18 20C18 21.1045 17.1045 22 16 22L2 22C0.895508 22 0 21.1045 0 20L0 2C0 0.895508 0.895508 0 2 0ZM22 0L36 0C37.1045 0 38 0.895508 38 2L38 20C38 21.1045 37.1045 22 36 22L22 22C20.8955 22 20 21.1045 20 20L20 2C20 0.895508 20.8955 0 22 0ZM42 0L56 0C57.1045 0 58 0.895508 58 2L58 20C58 21.1045 57.1045 22 56 22L42 22C40.8955 22 40 21.1045 40 20L40 2C40 0.895508 40.8955 0 42 0ZM2 24L16 24C17.1045 24 18 24.8955 18 26L18 44C18 45.1045 17.1045 46 16 46L2 46C0.895508 46 0 45.1045 0 44L0 26C0 24.8955 0.895508 24 2 24ZM22 24L36 24C37.1045 24 38 24.8955 38 26L38 44C38 45.1045 37.1045 46 36 46L22 46C20.8955 46 20 45.1045 20 44L20 26C20 24.8955 20.8955 24 22 24ZM42 24L56 24C57.1045 24 58 24.8955 58 26L58 44C58 45.1045 57.1045 46 56 46L42 46C40.8955 46 40 45.1045 40 44L40 26C40 24.8955 40.8955 24 42 24ZM2 48L16 48C17.1045 48 18 48.8955 18 50L18 68C18 69.1045 17.1045 70 16 70L2 70C0.895508 70 0 69.1045 0 68L0 50C0 48.8955 0.895508 48 2 48ZM22 48L36 48C37.1045 48 38 48.8955 38 50L38 68C38 69.1045 37.1045 70 36 70L22 70C20.8955 70 20 69.1045 20 68L20 50C20 48.8955 20.8955 48 22 48ZM42 48L56 48C57.1045 48 58 48.8955 58 50L58 68C58 69.1045 57.1045 70 56 70L42 70C40.8955 70 40 69.1045 40 68L40 50C40 48.8955 40.8955 48 42 48Z" clip-rule="evenodd" fill="#D0D0D0" fill-opacity="1.000000" fill-rule="evenodd"/>
</svg>
