<?xml version="1.0" encoding="UTF-8"?>
<svg width="52px" height="52px" viewBox="0 0 52 52" version="1.1" xmlns="http://www.w3.org/2000/svg" xmlns:xlink="http://www.w3.org/1999/xlink">
    <title>icn_即时会议</title>
    <g id="页面-1" stroke="none" stroke-width="1" fill="none" fill-rule="evenodd">
        <g id="画板" transform="translate(-336.000000, -240.000000)" fill="#F94A3E">
            <g id="视频会议-无数据" transform="translate(80.000000, 123.000000)">
                <g id="编组-6" transform="translate(68.000000, 117.000000)">
                    <g id="icn_即时会议" transform="translate(188.000000, 0.000000)">
                        <path d="M36.6166888,6.21504185e-16 C41.9658012,-3.61111829e-16 43.9055187,0.556953667 45.8610742,1.60279622 C47.8166298,2.64863878 49.3513612,4.18337022 50.3972038,6.13892578 C51.4430463,8.09448133 52,10.0341988 52,15.3833112 L52,36.6166888 C52,41.9658012 51.4430463,43.9055187 50.3972038,45.8610742 C49.3513612,47.8166298 47.8166298,49.3513612 45.8610742,50.3972038 C43.9055187,51.4430463 41.9658012,52 36.6166888,52 L15.3833112,52 C10.0341988,52 8.09448133,51.4430463 6.13892578,50.3972038 C4.18337022,49.3513612 2.64863878,47.8166298 1.60279622,45.8610742 C0.556953667,43.9055187 2.4074122e-16,41.9658012 -4.14336123e-16,36.6166888 L4.14336123e-16,15.3833112 C-2.4074122e-16,10.0341988 0.556953667,8.09448133 1.60279622,6.13892578 C2.64863878,4.18337022 4.18337022,2.64863878 6.13892578,1.60279622 C8.09448133,0.556953667 10.0341988,3.61111829e-16 15.3833112,-6.21504185e-16 L36.6166888,6.21504185e-16 Z M26.4206045,16.0426445 L17.8118089,26.3324439 C17.4574203,26.7560324 17.513518,27.3867074 17.9371065,27.7410959 C18.1170425,27.8916364 18.3441789,27.9741211 18.5787837,27.9741211 L25.1646729,27.9741211 L23.71535,35.666523 C23.6130933,36.2092587 23.9701722,36.7321283 24.5129078,36.834385 C24.8677525,36.9012411 25.2310794,36.7716069 25.4634595,36.4952304 L34.385661,25.8837897 C34.7410868,25.4610712 34.6865352,24.8302606 34.2638167,24.4748348 C34.0836055,24.3233115 33.8557086,24.2402344 33.6202614,24.2402344 L26.9707031,24.2402344 L28.1745864,16.8449983 C28.2633256,16.2998893 27.8933649,15.7860538 27.3482559,15.6973146 C26.9997576,15.6405819 26.6471717,15.7718365 26.4206045,16.0426445 Z"></path>
                    </g>
                </g>
            </g>
        </g>
    </g>
</svg>