<?xml version="1.0" encoding="UTF-8"?>
<svg width="32px" height="32px" viewBox="0 0 32 32" version="1.1" xmlns="http://www.w3.org/2000/svg" xmlns:xlink="http://www.w3.org/1999/xlink">
    <title>icon_huiyishezhi</title>
    <g id="icon_huiyishezhi" stroke="none" stroke-width="1" fill="none" fill-rule="evenodd">
        <path d="M16.9638375,5.03011062 L24.9638375,9.43011062 C25.602934,9.78161371 26,10.45316 26,11.1825424 L26,20.8174576 C26,21.54684 25.602934,22.2183863 24.9638375,22.5698894 L16.9638375,26.9698894 C16.3636722,27.2999803 15.6363278,27.2999803 15.0361625,26.9698894 L7.0361625,22.5698894 C6.39706599,22.2183863 6,21.54684 6,20.8174576 L6,11.1825424 C6,10.45316 6.39706599,9.78161371 7.0361625,9.43011062 L15.0361625,5.03011062 C15.6363278,4.70001971 16.3636722,4.70001971 16.9638375,5.03011062 Z M16,11 C13.2385763,11 11,13.2385763 11,16 C11,18.7614237 13.2385763,21 16,21 C18.7614237,21 21,18.7614237 21,16 C21,13.2385763 18.7614237,11 16,11 Z M16,13 C17.6568542,13 19,14.3431458 19,16 C19,17.6568542 17.6568542,19 16,19 C14.3431458,19 13,17.6568542 13,16 C13,14.3431458 14.3431458,13 16,13 Z" id="形状结合" fill="#FFFFFF"></path>
    </g>
</svg>