<?xml version="1.0" encoding="UTF-8"?>
<svg width="32px" height="32px" viewBox="0 0 32 32" version="1.1" xmlns="http://www.w3.org/2000/svg" xmlns:xlink="http://www.w3.org/1999/xlink">
    <title>icon_huiyianquan</title>
    <g id="icon_huiyianquan" stroke="none" stroke-width="1" fill="none" fill-rule="evenodd">
        <path d="M15.6172597,5.15856385 C15.8623209,5.05703847 16.1376791,5.05703847 16.3827403,5.15856385 L16.3827403,5.15856385 L24.7654807,8.63141341 C25.5127689,8.94100428 26,9.67024569 26,10.4791253 L26,10.4791253 L26,16.4285714 C26,20.7142857 21.7985612,26.0571429 16.0839329,27 L16.0839329,27 L15.9160671,27 C10.2014388,26.2142857 6,20.8714286 6,16.5857143 L6,16.5857143 L6,10.4791253 C6,9.67024569 6.48723105,8.94100428 7.23451934,8.63141341 L7.23451934,8.63141341 Z M21.4882383,12.8052719 C21.1085956,12.4041611 20.4756699,12.3867577 20.074559,12.7664004 L20.074559,12.7664004 L14.521,18.022 L12.5099958,15.6414945 L12.423112,15.5506838 C12.0578395,15.2137735 11.4902845,15.1937405 11.100784,15.522658 C10.6788251,15.8789853 10.6256202,16.5099109 10.9819475,16.9318698 L10.9819475,16.9318698 L13.5391119,19.9600358 L13.6288521,20.0553914 C14.0665382,20.4727151 14.7575721,20.5017262 15.230166,20.1026396 L15.230166,20.1026396 L15.2492139,20.0861812 L21.4493667,14.2189512 L21.5351133,14.127066 C21.8508056,13.743307 21.8386777,13.1755281 21.4882383,12.8052719 Z" id="形状结合" fill="#FFFFFF" fill-rule="nonzero"></path>
    </g>
</svg>