<?xml version="1.0" encoding="UTF-8"?>
<svg width="32px" height="32px" viewBox="0 0 32 32" version="1.1" xmlns="http://www.w3.org/2000/svg" xmlns:xlink="http://www.w3.org/1999/xlink">
    <title>icon_liaotian</title>
    <g id="icon_liaotian" stroke="none" stroke-width="1" fill="none" fill-rule="evenodd">
        <path d="M16,5 C22.0751322,5 27,9.92486775 27,16 C27,22.0751322 22.0751322,27 16,27 C14.3193512,27 12.7267343,26.6230905 11.3020655,25.9491878 L6.83357835,27.0656539 C6.5656809,27.1326283 6.29421365,26.9697479 6.22723929,26.7018505 C6.20733429,26.6222305 6.20733429,26.5389349 6.22723929,26.4593149 L7.19305638,22.5918204 C5.81585417,20.7547706 5,18.4726618 5,16 C5,9.92486775 9.92486775,5 16,5 Z M17,17 L12,17 C11.4477153,17 11,17.4477153 11,18 C11,18.5522847 11.4477153,19 12,19 L12,19 L17,19 C17.5522847,19 18,18.5522847 18,18 C18,17.4477153 17.5522847,17 17,17 L17,17 Z M20,13 L12,13 C11.4477153,13 11,13.4477153 11,14 C11,14.5522847 11.4477153,15 12,15 L12,15 L20,15 C20.5522847,15 21,14.5522847 21,14 C21,13.4477153 20.5522847,13 20,13 L20,13 Z" id="形状结合" fill="#FFFFFF"></path>
    </g>
</svg>