<?xml version="1.0" encoding="UTF-8"?>
<svg width="32px" height="32px" viewBox="0 0 32 32" version="1.1" xmlns="http://www.w3.org/2000/svg" xmlns:xlink="http://www.w3.org/1999/xlink">
    <title>icon_zhuanxie</title>
    <g id="icon_zhuanxie" stroke="none" stroke-width="1" fill="none" fill-rule="evenodd">
        <path d="M28,19 C28.5522847,19 29,19.4477153 29,20 L29,28 C29,28.5522847 28.5522847,29 28,29 L14,29 C13.4477153,29 13,28.5522847 13,28 L13,20 C13,19.4477153 13.4477153,19 14,19 L28,19 Z M24,21 L18,21 C17.4477153,21 17,21.4477153 17,22 C17,22.5128358 17.3860402,22.9355072 17.8833789,22.9932723 L18,23 L20,23 L20,26 C20,26.5128358 20.3860402,26.9355072 20.8833789,26.9932723 L21,27 C21.5128358,27 21.9355072,26.6139598 21.9932723,26.1166211 L22,26 L22,23 L24,23 C24.5128358,23 24.9355072,22.6139598 24.9932723,22.1166211 L25,22 C25,21.4477153 24.5522847,21 24,21 Z M20,5 C21.1045695,5 22,5.8954305 22,7 L22,14 C22,15.1045695 21.1045695,16 20,16 L8.5,16 L5.5547002,17.9635332 C5.09517151,18.2698857 4.47430216,18.1457118 4.16794971,17.6861831 C4.05843803,17.5219156 4,17.3289079 4,17.1314829 L4,7 C4,5.8954305 4.8954305,5 6,5 L20,5 Z M13,7 C12.4871642,7 12.0644928,7.38604019 12.0067277,7.88337887 L12,8 L12,13 C12,13.5522847 12.4477153,14 13,14 C13.5128358,14 13.9355072,13.6139598 13.9932723,13.1166211 L14,13 L14,8 C14,7.44771525 13.5522847,7 13,7 Z M17,8 C16.4871642,8 16.0644928,8.38604019 16.0067277,8.88337887 L16,9 L16,12 C16,12.5522847 16.4477153,13 17,13 C17.5128358,13 17.9355072,12.6139598 17.9932723,12.1166211 L18,12 L18,9 C18,8.44771525 17.5522847,8 17,8 Z M9,8 C8.48716416,8 8.06449284,8.38604019 8.00672773,8.88337887 L8,9 L8,12 C8,12.5522847 8.44771525,13 9,13 C9.51283584,13 9.93550716,12.6139598 9.99327227,12.1166211 L10,12 L10,9 C10,8.44771525 9.55228475,8 9,8 Z" id="形状结合" fill="#FFFFFF"></path>
    </g>
</svg>