<?xml version="1.0" encoding="UTF-8"?>
<svg width="32px" height="32px" viewBox="0 0 32 32" version="1.1" xmlns="http://www.w3.org/2000/svg" xmlns:xlink="http://www.w3.org/1999/xlink">
    <title>icon_headphones</title>
    <g id="icon_headphones" stroke="none" stroke-width="1" fill="none" fill-rule="evenodd">
        <path d="M16,12 C17.6568542,12 19,13.3431458 19,15 L19,19 C19,20.3058822 18.1656226,21.4168852 17.0009007,21.8289758 L17,28 C17,28.5522847 16.5522847,29 16,29 C15.4477153,29 15,28.5522847 15,28 L15.0000889,21.8293257 C13.8348501,21.4175144 13,20.3062521 13,19 L13,15 C13,13.3431458 14.3431458,12 16,12 Z M23,13 C23,9.13400675 19.8659932,6 16,6 C12.2145483,6 9.13090132,9.00478338 9.00405902,12.7593502 L9,13 L9,19.5 C9,20.3284271 8.32842712,21 7.5,21 L5.5,21 C4.67157288,21 4,20.3284271 4,19.5 L4,16 C4,14.8954305 4.8954305,14 6,14 L7,14 L7,13 C7,8.02943725 11.0294373,4 16,4 C20.8818027,4 24.8557914,7.88681368 24.9961629,12.7346377 L25,13 L25,14 L26,14 C27.0543618,14 27.9181651,14.8158778 27.9945143,15.8507377 L28,16 L28,19.5 C28,20.2796961 27.4051119,20.9204487 26.64446,20.9931334 L26.5,21 L24.5,21 C23.7203039,21 23.0795513,20.4051119 23.0068666,19.64446 L23,19.5 L23,13 Z" id="形状结合" fill="#FFFFFF"></path>
    </g>
</svg>