<?xml version="1.0" encoding="UTF-8"?>
<svg width="32px" height="32px" viewBox="0 0 32 32" version="1.1" xmlns="http://www.w3.org/2000/svg" xmlns:xlink="http://www.w3.org/1999/xlink">
    <title>icon_meiyan</title>
    <g id="icon_meiyan" stroke="none" stroke-width="1" fill="none" fill-rule="evenodd">
        <path d="M15.4522934,4 C17.0531428,4 18.555065,4.29544197 19.9580574,4.88632319 C21.3610498,5.47720442 22.5841705,6.28505197 23.6274221,7.30986316 C24.6706738,8.33467435 25.4935828,9.53951994 26.0961491,10.9243999 C26.6987155,12.3092799 27,13.7864762 27,15.3560159 C27,16.9440107 26.6897228,18.4304494 26.0691685,19.8153294 C25.4486142,21.2002094 24.5987246,22.4096722 23.5194996,23.443715 C23.1777442,23.8314814 22.7280689,24.0253646 22.1704685,24.0253646 C21.7747518,24.0253646 21.4060184,23.9053417 21.0642629,23.6652958 C20.3088055,23.166739 19.7646954,22.6451018 19.4319352,22.1003814 C19.0991751,21.555661 18.8563495,20.9924774 18.7034584,20.4108278 C18.5760499,19.9261198 18.4798689,19.435001 18.4149156,18.9374697 L18.3796909,18.6381814 C18.3167363,18.0380659 18.1863297,17.437953 17.9884719,16.8378375 C17.7906141,16.2377219 17.4713424,15.6329919 17.0306598,15.0236447 C16.5899772,14.4142975 15.9199566,13.8049503 15.0206034,13.1956031 C14.5709255,12.9001611 14.1482308,12.6785803 13.7525141,12.5308607 C13.488703,12.4323804 13.224893,12.3400547 12.9610827,12.2538843 L12.5653667,12.1292455 C12.16965,12.0092227 11.7829286,11.8799671 11.4051999,11.7414791 C11.0274712,11.6029911 10.6317545,11.390642 10.2180525,11.1044343 C9.80435048,10.8182267 9.37715553,10.4396919 8.9364729,9.96883273 C8.49579027,9.49797354 8.03262203,8.87477755 7.54697081,8.09924476 C7.99664874,7.43450236 8.53176355,6.8482356 9.15231788,6.34044717 C9.77287221,5.83265875 10.4338975,5.40334595 11.1353937,5.05250879 C11.8368899,4.70167162 12.556374,4.43854443 13.2938435,4.2631272 C14.031313,4.08770916 14.7507972,4 15.4522934,4 Z M17.1385823,18.5689374 C17.2177255,18.9973263 17.282479,19.4138986 17.3328428,19.8186531 L17.3679176,20.120003 C17.4218788,20.6185598 17.4983238,21.0940362 17.5972529,21.5464294 C17.6961819,21.9988226 17.8760518,22.4327526 18.1368653,22.8482166 C18.3976781,23.2636806 18.77091,23.6606786 19.2565612,24.0392134 C19.7422124,24.4177481 20.416728,24.7731998 21.2801079,25.105571 C21.3340692,25.1609662 21.379037,25.2671402 21.415011,25.4240934 L21.4757174,25.6768343 C21.4982013,25.7668516 21.5229335,25.8626391 21.5499142,25.9641966 C21.5930831,26.1266891 21.6563977,26.309862 21.7398578,26.5137166 L21.8062301,26.6704854 C21.9842869,27.0782448 21.8066329,27.5569785 21.4094287,27.739767 C21.3584316,27.7632352 21.3051476,27.7810687 21.2504759,27.7929664 C20.3348865,27.9922235 19.1935903,28.1212345 17.8265882,28.1800045 C16.7853804,28.2247681 15.9052235,28.194373 15.1861175,28.0888195 L15.0096949,28.0608733 C14.3293415,27.944825 13.8694466,27.2845574 13.9824909,26.5861244 L13.9953397,26.5181486 C14.0672881,26.1857774 14.1122557,25.8764866 14.1302428,25.590279 C14.1482299,25.3040713 14.1527267,25.0317098 14.1437331,24.7731998 C14.1347396,24.5146889 14.1212493,24.2469454 14.1032622,23.9699694 C14.0672881,23.4344834 13.8829204,23.1021122 13.5501594,22.9728558 C13.2173993,22.8436002 12.8306753,22.8112866 12.3899926,22.8759142 C11.94931,22.9405418 11.5086247,23.0513322 11.0679421,23.2082854 C10.6272595,23.3652385 10.2720137,23.4621801 10.0022075,23.4991102 C9.69642799,23.5545054 9.37715553,23.5960518 9.04439539,23.6237494 C8.71163525,23.651447 8.40135809,23.6422145 8.1135639,23.5960518 C7.8257697,23.549889 7.59643441,23.4621801 7.42555801,23.3329246 C7.27176854,23.2165946 7.20903852,23.0404379 7.23736817,22.8044544 L7.37159676,21.9480446 C7.41656456,21.6526026 7.43904832,21.347929 7.43904832,21.0340238 C7.43904832,20.7201186 7.38958393,20.4200595 7.29065489,20.1338518 C7.19172585,19.8476442 7.01635101,19.6029803 6.76453274,19.3998654 C6.65661025,19.3260051 6.4812362,19.2290635 6.2384106,19.1090406 C5.99558499,18.9890178 5.76624969,18.8551459 5.55040471,18.7074254 C5.33455973,18.559705 5.17267599,18.4119835 5.0647535,18.2642638 C4.956831,18.1165434 4.98381163,17.9688219 5.14569536,17.8211022 C5.50543613,17.5441263 5.87417219,17.230221 6.25190091,16.8793839 C6.62962963,16.5285467 6.91742382,16.1500146 7.11528084,15.7437823 C7.20521617,15.5591315 7.25917741,15.3652475 7.27716458,15.1621327 C7.29515167,14.959017 7.29065489,14.7697491 7.26367427,14.5943319 C7.2434388,14.4627684 7.22067385,14.3415913 7.19537953,14.2308009 L7.16924209,14.1234727 C7.13326801,13.9849847 7.11528084,13.8695779 7.11528084,13.7772527 C7.11528084,13.7033925 7.09225744,13.6118057 7.04621048,13.5024925 L7.00735835,13.4171839 C6.93540994,13.2694635 6.86346178,13.0663467 6.79151337,12.8078367 C6.71956495,12.5493259 6.66560371,12.2261871 6.62962963,11.8384207 C6.59365555,11.4506543 6.61164254,10.9613292 6.68359088,10.3704479 C6.21592762,10.4997035 5.88316485,10.7766803 5.68530782,11.2013759 C5.48745001,11.6260715 5.42449505,12.1523259 5.49644346,12.7801391 C5.20864927,12.3369775 5.05576083,11.9261307 5.03777287,11.5475959 C5.01978578,11.1690612 5.07824381,10.8274583 5.21314692,10.5227847 C5.34805004,10.2181111 5.54590706,9.9457523 5.80672063,9.70570554 C6.0675334,9.46565958 6.34183544,9.26254394 6.62962963,9.09635834 C7.09729288,10.1304012 7.60542971,10.905934 8.15403483,11.4229567 C8.70263995,11.9399795 9.27822833,12.3323603 9.8807947,12.6001047 C10.3972802,12.8295992 10.91707,13.0048295 11.4401643,13.1257941 L11.7019868,13.1817543 C12.3135484,13.3017771 12.9116171,13.4818107 13.4961982,13.7218575 C14.0807792,13.9619034 14.638377,14.3173559 15.1689968,14.7882151 C15.6996166,15.2590743 16.1807702,15.9653631 16.6124601,16.9070815 C16.8642792,17.4794994 17.0396525,18.0334514 17.1385823,18.5689374 Z" id="Shape" fill="#FFFFFF" fill-rule="nonzero"></path>
    </g>
</svg>