<?xml version="1.0" encoding="UTF-8"?>
<svg width="32px" height="32px" viewBox="0 0 32 32" version="1.1" xmlns="http://www.w3.org/2000/svg" xmlns:xlink="http://www.w3.org/1999/xlink">
    <title>icon_huiyijiyao</title>
    <g id="icon_huiyijiyao" stroke="none" stroke-width="1" fill="none" fill-rule="evenodd">
        <path d="M19.0632501,5.5 C19.6568098,5.5 20.219705,5.76364602 20.5996927,6.2196312 L24.5364426,10.9437311 C24.8359676,11.3031611 25,11.7562269 25,12.2240999 L25,24.5 C25,25.6045695 24.1045695,26.5 23,26.5 L9,26.5 C7.8954305,26.5 7,25.6045695 7,24.5 L7,7.5 C7,6.3954305 7.8954305,5.5 9,5.5 L19.0632501,5.5 Z M20,19 L12,19 C11.4477153,19 11,19.4477153 11,20 C11,20.5522847 11.4477153,21 12,21 L12,21 L20,21 C20.5522847,21 21,20.5522847 21,20 C21,19.4477153 20.5522847,19 20,19 L20,19 Z M16,15 L12,15 C11.4477153,15 11,15.4477153 11,16 C11,16.5522847 11.4477153,17 12,17 L12,17 L16,17 C16.5522847,17 17,16.5522847 17,16 C17,15.4477153 16.5522847,15 16,15 L16,15 Z M18,11 L12,11 C11.4477153,11 11,11.4477153 11,12 C11,12.5522847 11.4477153,13 12,13 L12,13 L18,13 C18.5522847,13 19,12.5522847 19,12 C19,11.4477153 18.5522847,11 18,11 L18,11 Z" id="形状结合" fill="#FFFFFF"></path>
    </g>
</svg>