<?xml version="1.0" encoding="UTF-8"?>
<svg width="32px" height="32px" viewBox="0 0 32 32" version="1.1" xmlns="http://www.w3.org/2000/svg" xmlns:xlink="http://www.w3.org/1999/xlink">
    <title>icon_huazhonghua</title>
    <g id="icon_huazhonghua" stroke="none" stroke-width="1" fill="none" fill-rule="evenodd">
        <path d="M24.5,8 C25.6045695,8 26.5,8.8954305 26.5,10 L26.5,15 C26.5,15.5522847 26.0522847,16 25.5,16 L17.5,16 C16.3954305,16 15.5,16.8954305 15.5,18 L15.5,24 C15.5,24.5522847 15.0522847,25 14.5,25 L7.5,25 C6.3954305,25 5.5,24.1045695 5.5,23 L5.5,10 C5.5,8.8954305 6.3954305,8 7.5,8 L24.5,8 Z M25.5,18 C26.0522847,18 26.5,18.4477153 26.5,19 L26.5,24 C26.5,24.5522847 26.0522847,25 25.5,25 L18.5,25 C17.9477153,25 17.5,24.5522847 17.5,24 L17.5,19 C17.5,18.4477153 17.9477153,18 18.5,18 L25.5,18 Z" id="形状结合" fill="#FFFFFF"></path>
    </g>
</svg>