<?xml version="1.0" encoding="UTF-8"?>
<svg width="16px" height="16px" viewBox="0 0 16 16" version="1.1" xmlns="http://www.w3.org/2000/svg" xmlns:xlink="http://www.w3.org/1999/xlink">
    <title>举手icon</title>
    <g id="切图合集" stroke="none" stroke-width="1" fill="none" fill-rule="evenodd">
        <g id="移动端切图" transform="translate(-758.000000, -23.000000)">
            <g id="icon/麦克风" transform="translate(758.000000, 23.000000)">
                <rect id="Rectangle-Copy-2" x="0" y="0" width="16" height="16"></rect>
                <path d="M13,3.94501229 L13,11.7156594 C13,12.895331 12.0575739,14 10.8533102,14 L6.80758929,14 C6.2168006,14 5.66949396,13.6296164 5.26019556,13.2221945 C5.26019556,13.2221945 2.54256759,9.14056768 2.197547,8.54332419 C1.59352464,7.49976851 2.49435923,6.84233769 3.29026975,7.3895794 C3.38857699,7.4571744 4.79418144,9.07667652 4.79418144,9.07667652 L4.79418144,3.14313188 C4.79418143,2.85615138 4.95047535,2.59097045 5.20418878,2.4474802 C5.45790221,2.30398994 5.77049006,2.30398994 6.02420349,2.4474802 C6.27791693,2.59097045 6.43421084,2.85615138 6.43421084,3.14313188 L6.43421084,6.89326543 L6.983408,6.89326543 L6.983408,1.80326935 C6.983408,1.35963594 7.35054109,1 7.8034227,1 C8.25630431,1 8.6234374,1.35963594 8.6234374,1.80326935 L8.6234374,6.89326543 L9.17074404,6.89326543 L9.17074404,2.33847359 C9.17074403,2.05149309 9.32703794,1.78631216 9.58075138,1.6428219 C9.83446481,1.49933165 10.1470527,1.49933165 10.4007661,1.6428219 C10.6544795,1.78631216 10.8107734,2.05149309 10.8107734,2.33847359 L10.8107734,6.89326543 L11.3580801,6.89326543 L11.3580801,3.94501229 C11.3580801,3.50147797 11.7248417,3.14313188 12.1795127,3.14313188 C12.6341836,3.14313188 13,3.50147797 13,3.94501229 Z" id="路径" fill="#FEFFFE" fill-rule="nonzero"></path>
            </g>
        </g>
    </g>
</svg>