<?xml version="1.0" encoding="UTF-8"?>
<svg width="64px" height="64px" viewBox="0 0 64 64" version="1.1" xmlns="http://www.w3.org/2000/svg" xmlns:xlink="http://www.w3.org/1999/xlink">
    <title>单选选中</title>
    <g id="切图合集" stroke="none" stroke-width="1" fill="none" fill-rule="evenodd">
        <g transform="translate(-1830.000000, -32.000000)" id="Group-14">
            <g transform="translate(1830.000000, 32.000000)" id="icon/选中">
                <rect id="Rectangle" x="0" y="0" width="64" height="64"></rect>
                <path d="M32,3 C48.0162577,3 61,15.9837423 61,32 C61,48.0162577 48.0162577,61 32,61 C15.9837423,61 3,48.0162577 3,32 C3,15.9837423 15.9837423,3 32,3 Z M50.5494248,20.1007828 C49.3713469,19.0517469 47.5647598,19.0920944 46.4350288,20.2218254 L27.3431458,39.3137085 L19.5649712,31.5355339 L19.4367264,31.4144913 C18.2586485,30.3654554 16.4520615,30.4058029 15.3223305,31.5355339 C14.1507576,32.7071068 14.1507576,34.6066017 15.3223305,35.7781746 L25.2218254,45.6776695 L25.3500702,45.7987121 C26.528148,46.8477481 28.3347351,46.8074005 29.4644661,45.6776695 L50.6776695,24.4644661 L50.7987121,24.3362213 C51.8477481,23.1581435 51.8074005,21.3515564 50.6776695,20.2218254 Z" id="Combined-Shape" fill="#407AFF" fill-rule="nonzero"></path>
            </g>
        </g>
    </g>
</svg>