<?xml version="1.0" encoding="UTF-8"?>
<svg width="24px" height="24px" viewBox="0 0 24 24" version="1.1" xmlns="http://www.w3.org/2000/svg" xmlns:xlink="http://www.w3.org/1999/xlink">
    <title>聊天</title>
    <g id="切图合集" stroke="none" stroke-width="1" fill="none" fill-rule="evenodd">
        <g id="移动端切图" transform="translate(-512.000000, -23.000000)">
            <g id="icon/麦克风" transform="translate(512.000000, 23.000000)">
                <rect id="Rectangle-Copy-2" x="0" y="0" width="24" height="24"></rect>
                <g id="编组-6" transform="translate(4.000000, 4.000000)" fill="#FFFFFF">
                    <path d="M8,0 C12.418278,0 16,3.581722 16,8 C16,12.418278 12.418278,16 8,16 C6.81858454,16 5.6969819,15.7439109 4.68767493,15.2842156 L1.26439954,15.8925274 C0.929772884,15.9520364 0.610262733,15.7290096 0.550753642,15.3943829 C0.538078348,15.3231083 0.538078348,15.2501561 0.550753642,15.1788815 L1.10532356,12.060015 C0.402973372,10.8698605 0,9.48199001 0,8 C0,3.581722 3.581722,0 8,0 Z M7.25,9 L4.75,9 C4.33578644,9 4,9.33578644 4,9.75 C4,10.1642136 4.33578644,10.5 4.75,10.5 L7.25,10.5 C7.66421356,10.5 8,10.1642136 8,9.75 C8,9.33578644 7.66421356,9 7.25,9 Z M10.25,6 L4.75,6 C4.33578644,6 4,6.33578644 4,6.75 C4,7.16421356 4.33578644,7.5 4.75,7.5 L10.25,7.5 C10.6642136,7.5 11,7.16421356 11,6.75 C11,6.33578644 10.6642136,6 10.25,6 Z" id="Shape"></path>
                </g>
            </g>
        </g>
    </g>
</svg>